<svg width="667" height="667" viewBox="0 0 667 667" fill="none" xmlns="http://www.w3.org/2000/svg">
<path d="M283.837 161.775C294.679 168.316 307.18 172.721 319.824 172.037C332.468 171.353 345.172 164.979 351.481 154.001C358.069 142.543 356.78 127.66 350.397 116.087C344.013 104.513 333.179 95.9346 321.469 89.8053C309.784 83.688 296.676 79.6826 283.515 80.5306C270.353 81.3786 257.18 87.5733 249.808 98.5106C230.503 127.156 262.403 148.839 283.837 161.775Z" fill="#E7E7E1"/>
<path d="M98.0478 477.857C86.8984 441.413 90.7573 398.433 116.133 369.999C127.624 357.124 143.392 346.999 149.163 330.735C157.545 307.108 141.488 282.727 133.025 259.128C124.87 236.392 123.872 210.591 133.222 188.32C142.572 166.049 163.024 148.036 186.911 144.453C209.883 141.008 232.763 150.575 253.048 161.893C273.333 173.213 292.953 186.689 315.516 192.216C338.079 197.741 365.152 193.161 378.567 174.196C385.368 164.579 387.901 152.465 394.617 142.787C408.651 122.567 438.377 118.243 461.239 127.364C484.099 136.485 501.141 156.005 515.045 176.315C578.88 269.556 592.527 395.113 550.216 499.892C539.839 525.589 525.112 551.315 500.889 564.78C482.753 574.862 461.373 576.91 440.673 578.32C382.379 582.293 323.853 582.839 265.496 579.969C237.525 578.593 209.664 576.11 181.771 573.707C163.221 572.108 153.572 567.872 141.319 553.352C122.67 531.249 106.549 505.643 98.0478 477.857Z" fill="#E7E7E1"/>
<path d="M578.515 566.313C578.515 578.704 468.744 588.75 333.333 588.75C197.924 588.75 88.1531 578.704 88.1531 566.313C88.1531 553.924 197.924 543.879 333.333 543.879C468.744 543.879 578.515 553.924 578.515 566.313Z" fill="#D7D1B8"/>
<path d="M335.416 338.543L291.508 362.736C270.937 374.069 262.088 398.995 270.908 420.763L293.076 475.479L336.656 444.161L335.416 338.543Z" fill="#52ADC3"/>
<path d="M290.612 384.912C298.891 384.328 306.927 381.895 314.737 379.091C321.884 376.524 328.905 373.616 335.791 370.415L335.416 338.543L291.508 362.736C283.015 367.415 276.527 374.415 272.448 382.549C278.173 384.691 284.483 385.343 290.612 384.912Z" fill="#2E819D"/>
<path d="M472.731 394.669L512.368 429.833C523.301 439.532 524.841 456.047 515.889 467.6L488.919 502.407L439.304 428.285L472.731 394.669Z" fill="#E9465C"/>
<path d="M342.967 195.377L337.593 200.143C331.74 205.335 327.112 211.761 324.044 218.96L286.885 306.139L345.531 294.213L341.919 243.9L345.271 202.055L342.967 195.377Z" fill="#2E819D"/>
<path d="M331.348 295.139C331.221 295.139 331.109 295.049 331.084 294.921C328.967 284.352 320.528 275.46 310.084 272.793C309.94 272.756 309.853 272.611 309.889 272.465C309.927 272.321 310.072 272.235 310.219 272.271C320.859 274.987 329.456 284.047 331.612 294.815C331.641 294.961 331.547 295.104 331.4 295.132L331.348 295.139Z" fill="#3F244A"/>
<path d="M334.711 296.371H334.7C334.567 296.365 334.457 296.263 334.443 296.129C333.28 285.191 327.24 274.843 318.288 268.452C318.167 268.365 318.139 268.197 318.224 268.076C318.311 267.955 318.48 267.927 318.601 268.012C327.163 274.125 333.097 283.807 334.732 294.195C336.024 283.859 332.449 273.037 325.173 265.557L325.179 265.176L325.56 265.181C333.392 273.233 337.001 285.1 334.976 296.149C334.952 296.277 334.84 296.371 334.711 296.371Z" fill="#3F244A"/>
<path d="M340.167 295.305L295.931 274.221C280.756 266.988 262.571 272.576 254.076 287.083L234.035 321.307L280.916 354.212L298.809 303.715L340.167 295.305Z" fill="#E9465C"/>
<path d="M288.111 314.043L287.861 313.873C283.025 301.775 274.157 291.508 262.889 284.969C262.76 284.893 262.716 284.729 262.791 284.6C262.867 284.471 263.031 284.428 263.16 284.501C274.532 291.103 283.481 301.463 288.361 313.673C288.417 313.812 288.349 313.969 288.211 314.024L288.111 314.043Z" fill="#3F244A"/>
<path d="M289.309 303.807L289.051 303.615C286.489 295.023 281.656 287.265 275.072 281.179L275.057 280.797L275.439 280.783C281.724 286.593 286.432 293.912 289.116 302.027C289.204 300.661 289.335 299.259 289.472 297.797C289.977 292.392 290.501 286.804 288.808 282.135C288.757 281.995 288.829 281.839 288.969 281.788C289.109 281.739 289.264 281.809 289.315 281.949C291.049 286.733 290.521 292.384 290.009 297.847C289.823 299.841 289.645 301.725 289.58 303.548C289.575 303.68 289.475 303.788 289.344 303.805L289.309 303.807Z" fill="#3F244A"/>
<path d="M279.899 341.337L279.736 341.284L251.619 320.039L251.565 319.661L251.944 319.608L280.061 340.853L280.115 341.231L279.899 341.337Z" fill="#3F244A"/>
<path d="M277.728 457.693L263.299 444.161L204.468 386.387C195.231 377.315 181.843 373.881 169.38 377.389C152.976 382.007 142.032 397.46 143.123 414.465L147.456 482.056L185.756 473.425L296.036 563.05H387.915V492.845L277.728 457.693Z" fill="#E9465C"/>
<path d="M277.728 457.693L263.299 444.161L254.712 435.729L265.627 454.925C267.916 458.949 269.347 463.404 269.829 468.008L270.985 479.012L264.377 482.056L303.889 544.15L293.035 560.61L296.036 563.05H387.915V492.845L277.728 457.693Z" fill="#BD2B61"/>
<path d="M150.153 466.613C150.032 466.613 149.921 466.529 149.891 466.407C149.856 466.261 149.945 466.117 150.089 466.081L216.709 449.931C216.856 449.897 217 449.985 217.035 450.131C217.069 450.275 216.98 450.419 216.836 450.456L150.217 466.605L150.153 466.613Z" fill="#3F244A"/>
<path d="M214.444 413.009L236.011 462.348C236.975 464.551 236.849 467.08 235.673 469.177L227.857 483.119C226.684 485.211 226.576 487.736 227.563 489.921L230.955 497.423C235.309 507.06 241.352 515.841 248.795 523.353L255.432 530.051L185.756 473.425L229.56 463.553L214.444 413.009Z" fill="#BD2B61"/>
<path d="M147.456 482.325C147.333 482.325 147.221 482.241 147.193 482.115C147.16 481.971 147.252 481.825 147.397 481.793L229.22 463.355L211.12 402.837C211.077 402.695 211.159 402.544 211.301 402.503C211.445 402.456 211.593 402.541 211.637 402.684L229.82 463.476L229.793 463.689L229.62 463.816L147.516 482.319L147.456 482.325Z" fill="#3F244A"/>
<path d="M198.549 439.659L198.513 439.657C179.833 437.228 162.409 428.36 149.451 414.688L149.461 414.305L149.843 414.316C162.716 427.9 180.027 436.708 198.584 439.123C198.731 439.14 198.835 439.277 198.816 439.424C198.799 439.56 198.683 439.659 198.549 439.659Z" fill="#3F244A"/>
<path d="M177.143 420.083L176.888 419.9C176.839 419.759 176.915 419.605 177.056 419.557C187.899 415.841 196.947 406.797 200.668 395.956C200.717 395.815 200.871 395.737 201.011 395.788C201.152 395.836 201.227 395.989 201.179 396.131C197.404 407.127 188.228 416.299 177.231 420.068L177.143 420.083Z" fill="#3F244A"/>
<path d="M152.459 561.008L148.243 560.216C146.913 559.967 145.573 560.595 144.913 561.776L142.587 565.945C141.847 567.271 142.805 568.904 144.324 568.904H146.4C148.115 568.904 149.659 567.865 150.307 566.279L152.459 561.008Z" fill="#FAC1A4"/>
<path d="M147.66 560.432C146.631 560.432 145.664 560.984 145.149 561.907L142.823 566.079C142.523 566.615 142.528 567.253 142.841 567.786C143.153 568.316 143.707 568.635 144.324 568.635H146.4C148.012 568.635 149.448 567.669 150.057 566.176L152.084 561.211L148.192 560.481C148.015 560.448 147.836 560.432 147.66 560.432ZM146.4 569.174H144.324C143.513 569.174 142.785 568.756 142.376 568.059C141.967 567.362 141.957 566.521 142.352 565.815L144.679 561.643C145.393 560.362 146.844 559.683 148.292 559.951L152.508 560.743L152.696 560.879L152.708 561.109L150.556 566.38C149.864 568.077 148.232 569.174 146.4 569.174Z" fill="#3F244A"/>
<path d="M158.605 560.092L153.9 559.209C152.417 558.932 150.921 559.634 150.187 560.951L147.589 565.603C146.764 567.083 147.833 568.904 149.528 568.904H151.845C153.757 568.904 155.481 567.747 156.204 565.974L158.605 560.092Z" fill="#FAC1A4"/>
<path d="M153.249 559.419C152.091 559.419 151.001 560.041 150.421 561.083L147.825 565.736C147.485 566.345 147.493 567.068 147.847 567.671C148.2 568.274 148.829 568.635 149.528 568.635H151.845C153.657 568.635 155.269 567.55 155.953 565.872L158.231 560.297L153.851 559.475C153.649 559.438 153.448 559.419 153.249 559.419ZM151.845 569.174H149.528C148.636 569.174 147.833 568.714 147.381 567.944C146.929 567.175 146.92 566.251 147.355 565.472L149.951 560.819C150.743 559.397 152.353 558.647 153.949 558.944L158.655 559.827L158.841 559.964L158.855 560.195L156.453 566.077C155.685 567.957 153.877 569.174 151.845 569.174Z" fill="#3F244A"/>
<path d="M167.691 477.496L186.835 535.969L164.448 557.665L158.996 558.859C156.987 559.299 155.288 560.628 154.379 562.472L151.773 567.753C150.655 570.024 152.305 572.68 154.836 572.68H160.904C164.873 572.68 168.651 570.977 171.281 568.004H209.544C217.583 568.004 222.881 559.635 219.444 552.368L209.4 531.143L208.179 468.372L167.691 477.496Z" fill="#FAC1A4"/>
<path d="M154.379 562.472C157.739 563.104 164.111 563.049 164.111 563.049L161.763 567.296C161.155 568.396 160.027 569.135 158.771 569.188C155.001 569.348 151.773 567.753 151.773 567.753L154.379 562.472Z" fill="#FCD7C6"/>
<path d="M204.276 547.417L204.137 547.377C204.009 547.302 203.968 547.136 204.044 547.008L204.337 546.517C206.491 542.914 206.477 538.443 204.305 534.851C203.58 533.648 203.076 532.341 202.809 530.964L200.145 517.171C200.117 517.024 200.213 516.881 200.36 516.855C200.503 516.819 200.647 516.92 200.675 517.068L203.34 530.861C203.593 532.176 204.075 533.422 204.767 534.572C207.043 538.336 207.056 543.019 204.801 546.793L204.507 547.284L204.276 547.417Z" fill="#3F244A"/>
<path d="M168.039 477.695L187.091 535.885L187.023 536.163L164.636 557.86L164.505 557.928L159.053 559.121C157.115 559.545 155.499 560.809 154.62 562.591L152.015 567.873C151.531 568.856 151.587 569.996 152.165 570.925C152.744 571.855 153.741 572.41 154.836 572.41H160.904C164.792 572.41 168.501 570.739 171.08 567.825L171.281 567.736H209.544C213.225 567.736 216.6 565.877 218.569 562.767C220.539 559.656 220.775 555.812 219.199 552.483L209.156 531.259L209.131 531.148L207.915 468.708L168.039 477.695ZM160.904 572.949H154.836C153.555 572.949 152.384 572.3 151.707 571.209C151.029 570.121 150.964 568.784 151.532 567.636L154.137 562.353C155.088 560.422 156.837 559.053 158.939 558.595L164.316 557.417L186.527 535.893L167.435 477.581L167.456 477.363L167.631 477.233L208.119 468.109L208.344 468.16L208.448 468.367L209.668 531.081L219.688 552.253C221.341 555.751 221.093 559.788 219.025 563.056C216.956 566.322 213.412 568.275 209.544 568.275H171.401C168.725 571.247 164.907 572.949 160.904 572.949Z" fill="#3F244A"/>
<path d="M306.857 462.637L300.74 470.193C298.747 472.655 296.085 474.491 293.076 475.479L278.807 480.168L300.559 500.979C308.4 508.479 319.392 511.708 330.043 509.641L373.497 501.205L382.901 486.64L306.857 462.637Z" fill="#E9465C"/>
<path d="M306.857 462.637C306.497 471.628 338.683 491.945 357.623 492.845L328.492 502.784C319.665 505.796 309.935 504.481 302.228 499.229C298.26 496.527 293.972 493.627 290.411 491.269L300.559 500.979C308.4 508.479 319.392 511.708 330.043 509.64L373.497 501.205L382.901 486.64L306.857 462.637Z" fill="#BD2B61"/>
<path d="M290.808 441.599L286.792 445.375C285.077 446.987 282.7 447.689 280.385 447.268L263.299 444.161L277.728 457.693L285.733 477.892L293.076 475.479C296.085 474.491 298.747 472.655 300.74 470.193L306.857 462.637L290.808 441.599Z" fill="#E9465C"/>
<path d="M297.231 450.019L302.092 464.525L299.701 467.437C298.059 469.436 295.723 470.741 293.159 471.088L283.553 472.389L285.733 477.892L293.076 475.479C296.085 474.491 298.747 472.655 300.74 470.193L306.857 462.637L297.231 450.019Z" fill="#BD2B61"/>
<path d="M323.692 510.521C315.088 510.523 306.697 507.225 300.373 501.175L278.62 480.363L278.544 480.108L278.723 479.912L292.992 475.224C295.959 474.249 298.565 472.449 300.529 470.024L303.647 466.173L304.025 466.135L304.065 466.513L300.949 470.361C298.919 472.869 296.225 474.728 293.16 475.736L279.317 480.284L300.747 500.784C308.509 508.211 319.443 511.42 329.992 509.377L373.333 500.963L382.675 486.495C382.755 486.369 382.921 486.333 383.047 486.415C383.173 486.496 383.208 486.663 383.128 486.788L373.724 501.352L373.549 501.471L330.095 509.907C327.967 510.319 325.821 510.521 323.692 510.521Z" fill="#3F244A"/>
<path d="M285.733 478.161L285.483 477.991L277.5 457.849L263.113 444.359L263.101 443.976L263.483 443.965L277.912 457.496L277.979 457.593L285.984 477.793C286.039 477.931 285.972 478.088 285.833 478.143L285.733 478.161Z" fill="#3F244A"/>
<path d="M298.372 424.605C294.876 430.408 291.38 436.208 287.883 442.011C296.499 457.525 309.525 471.473 325.179 479.835C340.832 488.195 358.917 491.936 376.604 490.469C379.431 487.48 382.264 484.521 385.089 481.532C359.023 459.141 328.967 440.256 298.372 424.605Z" fill="#3F244A"/>
<path d="M415.141 373.687L361.161 405.881L383.668 330.447L369.837 321.307L312.785 344.403V363.757C312.785 370.252 311.009 376.624 307.648 382.182L290.924 409.836C288.473 413.89 288.668 419.015 291.42 422.87L311.408 450.877C314.16 454.735 318.501 457.147 323.231 457.448L329.841 457.868L338.489 424.812C339.564 420.705 342.209 417.185 345.856 415.011L415.141 373.687Z" fill="#E9465C"/>
<path d="M329.841 457.868L308.655 413.009L329.841 441.06L325.916 425.956L335.417 436.558L329.841 457.868Z" fill="#BD2B61"/>
<path d="M421.741 355.601L415.141 373.687L345.856 415.011C342.209 417.185 339.564 420.705 338.489 424.812L329.841 457.868L345.425 458.861L366.923 479.357C374.913 486.973 387.415 487.177 395.645 479.821L428.767 450.231L458.552 379.924L421.741 355.601Z" fill="#E9465C"/>
<path d="M415.141 373.687L421.741 355.601L383.668 330.447L361.161 405.881L415.141 373.687Z" fill="#FAC1A4"/>
<path d="M345.425 459.131L345.367 459.124C345.221 459.091 345.129 458.947 345.163 458.803L350.645 434.125C351.633 429.681 354.453 425.809 358.38 423.505L422.056 386.141L425.316 363.556C425.337 363.411 425.468 363.304 425.623 363.328C425.769 363.351 425.871 363.487 425.849 363.635L422.571 386.347L422.441 386.54L358.653 423.972C354.855 426.199 352.128 429.944 351.173 434.244L345.689 458.919C345.66 459.045 345.549 459.131 345.425 459.131Z" fill="#3F244A"/>
<path d="M330.185 457.621L345.443 458.592L345.612 458.665L367.111 479.161C374.943 486.631 387.399 486.831 395.467 479.62L428.543 450.069L458.215 380.027L421.876 356.015L415.395 373.779L415.28 373.917L345.993 415.243C342.385 417.395 339.813 420.817 338.751 424.881L330.185 457.621ZM381.543 485.436C376.191 485.436 370.845 483.469 366.737 479.552L345.311 459.124L329.824 458.139L329.623 458.028L329.58 457.801L338.229 424.745C339.328 420.543 341.987 417.004 345.717 414.779L414.921 373.504L421.488 355.509L421.656 355.347L421.889 355.376L458.699 379.699L458.8 380.029L429.016 450.335L428.947 450.431L395.825 480.023C391.78 483.637 386.659 485.436 381.543 485.436Z" fill="#3F244A"/>
<path d="M313.056 344.585V363.759C313.056 370.303 311.265 376.72 307.879 382.32L291.156 409.973C288.757 413.941 288.947 418.941 291.64 422.713L311.627 450.721C314.344 454.528 318.58 456.881 323.247 457.18L329.637 457.585L338.229 424.745C339.328 420.543 341.987 417.004 345.717 414.779L360.933 405.703L383.352 330.56L369.805 321.611L313.056 344.585ZM329.841 458.14L329.824 458.139L323.213 457.716C318.383 457.411 314 454.973 311.188 451.035L291.2 423.027C288.383 419.08 288.184 413.847 290.693 409.696L307.417 382.041C310.753 376.527 312.516 370.203 312.516 363.759V344.403L312.685 344.152L369.736 321.057L369.985 321.081L383.816 330.221L383.925 330.523L361.617 405.296L415.004 373.455C415.131 373.38 415.297 373.419 415.373 373.548C415.449 373.676 415.409 373.841 415.28 373.917L361.3 406.115L361.283 406.124L345.993 415.243C342.385 417.395 339.813 420.817 338.751 424.881L330.103 457.937C330.071 458.057 329.964 458.14 329.841 458.14Z" fill="#3F244A"/>
<path d="M345.856 415.28L345.783 415.269C345.639 415.229 345.555 415.081 345.596 414.936L363.237 352.396C363.277 352.252 363.427 352.165 363.569 352.209C363.713 352.251 363.797 352.399 363.755 352.541L346.115 415.084L345.856 415.28Z" fill="#3F244A"/>
<path d="M313.056 363.533V344.585L330.285 337.609L379.471 341.44L330.844 351.275C328.223 351.804 325.775 352.976 323.716 354.685L313.056 363.533Z" fill="#B83B5A"/>
<path d="M315.78 342.899L326.851 337.343L329.079 337.516L315.78 342.899Z" fill="#B6A9B4"/>
<path d="M312.785 363.757V344.403L315.78 342.899L329.079 337.516L330.285 337.609L313.056 344.585V363.533L312.785 363.757Z" fill="#3F244A"/>
<path d="M408.513 467.963L393.72 445.46C388.999 438.279 387.059 429.623 388.261 421.113L389.793 410.289C389.577 418.404 391.976 426.531 396.899 433.364L416.608 460.732L408.513 467.963Z" fill="#B83B5A"/>
<path d="M408.664 468.191L408.513 467.963L416.608 460.732L416.767 460.952L408.664 468.191Z" fill="#3F244A"/>
<path d="M394.435 466.116L394.335 466.096C380.103 460.497 367.336 451.384 357.417 439.745L357.448 439.364L357.828 439.395C367.691 450.968 380.381 460.028 394.533 465.595C394.672 465.649 394.74 465.805 394.685 465.945L394.435 466.116Z" fill="#3F244A"/>
<path d="M382.901 453.585L382.785 453.56C379.343 451.928 376.157 449.812 373.317 447.271L373.297 446.889L373.679 446.868C376.477 449.375 379.62 451.464 383.017 453.073C383.151 453.137 383.208 453.299 383.144 453.432L382.901 453.585Z" fill="#3F244A"/>
<path d="M340.335 407.5L340.109 407.379C331.669 394.489 326.575 379.559 325.377 364.199C325.365 364.051 325.476 363.92 325.625 363.909C325.763 363.885 325.903 364.008 325.915 364.156C327.107 379.427 332.171 394.269 340.56 407.084C340.641 407.207 340.608 407.375 340.481 407.456L340.335 407.5Z" fill="#3F244A"/>
<path d="M326.375 398.619L326.183 398.537C322.519 394.82 319.597 390.277 317.733 385.401C317.68 385.261 317.749 385.105 317.889 385.053C318.027 384.997 318.184 385.071 318.237 385.209C320.075 390.016 322.955 394.493 326.567 398.159L326.564 398.54L326.375 398.619Z" fill="#3F244A"/>
<path d="M234.035 321.307L230.259 326.521L225.943 334.073L220.908 336.591C217.172 338.459 214.812 342.277 214.812 346.453V358.932C213.733 356.688 211.316 355.409 208.853 355.777L207.603 355.965L206.168 364.951C205.839 367.019 207.189 368.98 209.237 369.412L213.267 370.26L217.82 374.273C219.933 376.137 222.864 376.764 225.556 375.931L241.448 371.011C245.175 369.856 247.637 366.313 247.42 362.417L246.171 339.975L250.812 333.084L234.035 321.307Z" fill="#FAC1A4"/>
<path d="M223.185 376.557C221.172 376.557 219.181 375.832 217.641 374.475L213.088 370.463L213.064 370.083L213.444 370.057L217.999 374.071C220.028 375.86 222.893 376.476 225.476 375.672L241.369 370.752C241.511 370.712 241.663 370.788 241.707 370.929C241.751 371.073 241.671 371.224 241.528 371.268L225.636 376.189C224.835 376.436 224.008 376.557 223.185 376.557Z" fill="#3F244A"/>
<path d="M206.776 361.417L206.732 361.415C206.585 361.391 206.485 361.252 206.508 361.106L207.336 355.923L207.563 355.699L208.813 355.512C211.407 355.12 213.917 356.45 215.056 358.815C215.12 358.951 215.064 359.111 214.929 359.176C214.797 359.24 214.635 359.186 214.569 359.05C213.535 356.898 211.256 355.69 208.893 356.044L207.837 356.201L207.041 361.191C207.02 361.323 206.907 361.417 206.776 361.417Z" fill="#3F244A"/>
<path d="M216.56 340.765L216.415 340.723C216.289 340.641 216.253 340.475 216.333 340.351C217.431 338.641 218.971 337.257 220.788 336.349C220.92 336.284 221.083 336.336 221.149 336.471C221.216 336.603 221.163 336.765 221.029 336.832C219.299 337.696 217.833 339.015 216.788 340.641L216.56 340.765Z" fill="#3F244A"/>
<path d="M214.812 363.024C214.664 363.024 214.543 362.903 214.543 362.753V354.212C214.543 354.064 214.664 353.943 214.812 353.943C214.961 353.943 215.083 354.064 215.083 354.212V362.753C215.083 362.903 214.961 363.024 214.812 363.024Z" fill="#3F244A"/>
<path d="M220.372 372.027L220.316 372.021L209.183 369.676C209.036 369.644 208.943 369.503 208.973 369.357C209.004 369.211 209.148 369.124 209.293 369.147L220.427 371.492C220.573 371.524 220.667 371.665 220.636 371.812C220.609 371.939 220.496 372.027 220.372 372.027Z" fill="#3F244A"/>
<path d="M229.371 375.02L229.16 374.917L229.204 374.539L236.833 368.476L237.212 368.52L237.168 368.899L229.539 374.96L229.371 375.02Z" fill="#3F244A"/>
<path d="M224.615 369.34L224.404 369.241L224.444 368.861C226.359 367.312 227.317 364.648 226.831 362.236C226.8 362.088 226.895 361.947 227.041 361.917C227.187 361.891 227.329 361.981 227.359 362.128C227.885 364.735 226.849 367.608 224.784 369.28L224.615 369.34Z" fill="#3F244A"/>
<path d="M234.852 367.163L234.732 367.135C234.599 367.068 234.544 366.907 234.611 366.773C235.456 365.068 235.436 362.96 234.556 361.272C234.487 361.14 234.539 360.976 234.669 360.909C234.801 360.839 234.965 360.891 235.033 361.024C235.992 362.861 236.015 365.155 235.093 367.013L234.852 367.163Z" fill="#3F244A"/>
<path d="M239.789 365.816L239.72 365.807C239.576 365.768 239.491 365.621 239.528 365.476L240.011 363.66C240.049 363.517 240.196 363.431 240.341 363.469C240.485 363.507 240.571 363.653 240.532 363.799L240.049 365.616L239.789 365.816Z" fill="#3F244A"/>
<path d="M345.271 202.055L340.167 207.129L334.475 222.213C333.665 224.36 333.32 226.653 333.465 228.943L335.711 264.625C335.891 267.479 336.824 270.235 338.416 272.611L351.997 292.899L355.54 292.179L357.631 280.517L351.997 272.399L344.572 227.711C344.165 225.265 344.615 222.753 345.841 220.6L349.472 214.231L345.271 202.055Z" fill="#52ADC3"/>
<path d="M347.201 274.757L353.427 282.469L344.425 276.715L354.023 292.487L355.54 292.179L357.631 280.517L351.997 272.399L344.572 227.711C344.165 225.266 344.615 222.754 345.841 220.6L349.472 214.231L347.437 208.336L342.611 216.248C341.023 218.852 340.304 221.894 340.556 224.934L344.059 266.917C344.299 269.787 345.393 272.517 347.201 274.757Z" fill="#2E819D"/>
<path d="M282.403 309.26L271.255 311.237L246.776 298.124C243.481 296.36 239.393 297.269 237.159 300.261L221.795 320.833C220.528 322.529 219.925 324.629 220.099 326.737L220.908 336.591L225.943 334.074L230.259 326.521L233.141 328.783C237.251 332.006 242.179 334.016 247.371 334.587C252.861 335.191 258.408 334.158 263.313 331.616L265.86 330.297L283.841 331.196L282.403 309.26Z" fill="#FAB590"/>
<path d="M220.908 336.861L220.776 336.825L220.64 336.613L220.103 330.088C220.091 329.939 220.201 329.809 220.349 329.797C220.487 329.777 220.628 329.893 220.64 330.044L221.144 336.171L225.749 333.869L230.024 326.388L230.207 326.257L230.424 326.309L233.308 328.571C237.381 331.767 242.253 333.753 247.4 334.319C252.857 334.917 258.316 333.901 263.189 331.377L265.736 330.057L265.873 330.028L283.855 330.927C284.003 330.935 284.117 331.061 284.111 331.211C284.104 331.359 283.996 331.492 283.828 331.465L265.92 330.571L263.437 331.856C258.469 334.429 252.901 335.465 247.341 334.856C242.095 334.279 237.128 332.252 232.975 328.996L230.337 326.927L226.177 334.208L226.063 334.315L221.029 336.832L220.908 336.861Z" fill="#3F244A"/>
<path d="M227.251 315.991L227.077 315.928L227.043 315.548C228.065 314.323 229.557 313.484 231.136 313.249C232.713 313.009 234.387 313.376 235.723 314.248C235.848 314.331 235.884 314.497 235.803 314.621C235.721 314.747 235.556 314.783 235.428 314.7C234.2 313.899 232.663 313.565 231.216 313.781C229.767 313.999 228.396 314.768 227.457 315.893L227.251 315.991Z" fill="#3F244A"/>
<path d="M260.984 319.087L260.911 319.077C254.4 317.212 247.4 316.623 240.671 317.381C240.52 317.392 240.389 317.292 240.372 317.143C240.356 316.995 240.463 316.861 240.611 316.845C247.411 316.084 254.483 316.675 261.059 318.559C261.201 318.6 261.284 318.749 261.244 318.892L260.984 319.087Z" fill="#3F244A"/>
<path d="M261.064 315.096L260.961 315.076L249.728 310.454C249.591 310.396 249.525 310.239 249.581 310.102C249.639 309.963 249.796 309.898 249.933 309.955L261.167 314.578C261.304 314.635 261.369 314.792 261.313 314.93L261.064 315.096Z" fill="#3F244A"/>
<path d="M232.541 308.416L232.32 308.3C232.235 308.177 232.265 308.009 232.388 307.924C234.061 306.759 236.241 306.365 238.219 306.872C238.361 306.909 238.449 307.056 238.412 307.2C238.376 307.344 238.229 307.432 238.084 307.395C236.259 306.928 234.244 307.291 232.695 308.367L232.541 308.416Z" fill="#3F244A"/>
<path d="M377.316 165.372L368.192 172.717L370.915 176.607L377.316 165.372Z" fill="#2E819D"/>
<path d="M340.167 187.26L349.472 214.231L370.915 176.607L361.473 163.12H352.033L340.167 187.26Z" fill="#FAB590"/>
<path d="M344.589 200.082C359.856 175.932 360.889 172.966 359.72 167.662C361.788 167.84 363.828 166.484 363.828 166.484L361.473 163.12H352.033L340.167 187.26L344.589 200.082Z" fill="#F7957C"/>
<path d="M293.388 136.691C279.885 137.768 272.739 121.315 288.381 119.158C283.959 117.286 280.573 112.57 280.728 107.77C280.883 102.97 284.22 98.4281 288.753 96.8455C291.86 95.7615 295.268 96.0002 298.509 96.5508C301.752 97.1015 304.963 97.9535 308.251 98.0602C312.888 98.2135 317.425 96.8815 321.92 95.7322C326.416 94.5815 331.105 93.5988 335.665 94.4481C340.227 95.3001 344.657 98.4068 345.732 102.92C365.384 97.5815 365.384 116.46 363.632 149.365L350.145 161.368L333.019 126.17L297.552 138.982L293.388 136.691Z" fill="#742844"/>
<path d="M293.388 136.691C294.233 154.833 301.495 172.615 313.591 186.164C317.277 190.295 321.723 194.208 327.177 195.159C332.103 196.016 337.212 194.277 341.293 191.389C345.373 188.503 348.569 184.549 351.528 180.521C353.213 178.227 354.856 175.863 355.899 173.215C356.94 170.567 357.345 167.58 356.504 164.861C360.672 166.081 365.669 164.884 368.569 161.651C371.469 158.417 372.308 153.484 370.643 149.473C370.009 147.947 369.015 146.531 367.627 145.635C365.027 143.955 361.423 144.436 358.9 146.229C356.375 148.023 354.804 150.893 353.887 153.852C352.032 152.063 350.409 149.631 350.123 147.071C346.999 146.42 344.344 143.792 343.472 140.723C342.601 137.653 342.869 134.391 343.145 131.212C342.737 132.229 340.933 132.935 339.9 132.573C338.864 132.213 338.147 131.208 337.9 130.14C337.651 129.073 337.811 127.951 338.095 126.892C338.761 124.409 340.121 122.116 341.977 120.339C329.872 119.6 317.327 122.643 307.477 129.723C305.392 131.221 303.413 132.873 301.22 134.208C299.027 135.543 295.953 136.62 293.388 136.691Z" fill="#FAB590"/>
<path d="M364.92 150.4C362.028 151.424 359.811 154.147 359.392 157.187C359.216 158.464 359.485 160.011 360.644 160.576C361.369 160.931 362.251 160.783 362.987 160.453C363.973 160.012 364.832 159.235 365.251 158.237C365.669 157.24 365.604 156.024 364.979 155.141C364.355 154.26 363.148 153.795 362.123 154.136C362.533 152.711 363.715 151.264 364.92 150.4Z" fill="#F7957C"/>
<path d="M322.256 140.669C318.859 142.833 316.735 146.235 316.069 149.909L333.247 138.972C329.635 138.02 325.656 138.505 322.256 140.669Z" fill="#742844"/>
<path d="M331.4 152.164C331.4 153.932 329.967 155.367 328.197 155.367C326.429 155.367 324.995 153.932 324.995 152.164C324.995 150.395 326.429 148.961 328.197 148.961C329.967 148.961 331.4 150.395 331.4 152.164Z" fill="#3F244A"/>
<path d="M303.927 145.281C301.392 144.512 298.616 145.476 296.225 147.617L309.035 151.5C308.236 148.392 306.461 146.049 303.927 145.281Z" fill="#742844"/>
<path d="M306.161 157.413C306.161 159.181 305.219 160.615 304.056 160.615C302.893 160.615 301.951 159.181 301.951 157.413C301.951 155.644 302.893 154.209 304.056 154.209C305.219 154.209 306.161 155.644 306.161 157.413Z" fill="#3F244A"/>
<path d="M340.384 179.145C333.491 181.301 326.597 183.456 319.704 185.612C320.605 183.061 321.491 180.293 323.137 178.147C324.783 176 327.221 174.308 329.923 174.176C331.684 174.089 333.425 174.665 334.964 175.525C336.501 176.385 339.031 178.016 340.384 179.145Z" fill="white"/>
<path d="M315.084 174.196C314.436 174.196 313.793 174.013 313.223 173.656C312.299 173.073 311.707 172.116 311.599 171.029L309.555 150.309C309.54 150.161 309.648 150.029 309.796 150.015C309.945 150.007 310.076 150.108 310.091 150.256L312.137 170.977C312.227 171.897 312.728 172.707 313.511 173.199C314.293 173.691 315.237 173.792 316.104 173.476L317.271 173.049C318.947 172.436 320.683 171.801 322.395 171.217C322.535 171.171 322.688 171.244 322.737 171.387C322.785 171.528 322.709 171.68 322.568 171.728C320.861 172.309 319.131 172.944 317.455 173.556L316.288 173.983C315.895 174.125 315.488 174.196 315.084 174.196Z" fill="#3F244A"/>
<path d="M293.14 126.263C291.704 126.263 290.232 126.052 288.791 125.532C288.651 125.481 288.577 125.327 288.628 125.187C288.68 125.047 288.833 124.976 288.973 125.024C293.167 126.539 297.656 125.309 300.684 124.013C303.012 123.017 305.237 121.7 307.388 120.425C308.688 119.656 310.031 118.86 311.389 118.14C322.076 112.472 334.925 110.943 346.641 113.94C346.787 113.977 346.873 114.124 346.837 114.269C346.8 114.413 346.651 114.5 346.509 114.464C334.919 111.497 322.212 113.011 311.641 118.617C310.296 119.331 308.957 120.124 307.664 120.891C305.497 122.172 303.256 123.5 300.896 124.509C298.811 125.403 296.047 126.263 293.14 126.263Z" fill="#3F244A"/>
<path d="M345.129 112.644L344.984 112.601C340.392 109.664 334.653 108.356 329.241 109.004C326.713 109.308 324.18 110.025 321.731 110.719C317.897 111.805 313.932 112.928 309.909 112.481C309.761 112.464 309.655 112.331 309.671 112.183C309.688 112.035 309.817 111.929 309.969 111.944C313.885 112.383 317.8 111.272 321.584 110.2C324.053 109.5 326.607 108.777 329.175 108.469C334.707 107.801 340.579 109.143 345.275 112.148C345.4 112.228 345.437 112.395 345.357 112.52L345.129 112.644Z" fill="#3F244A"/>
<path d="M345.467 109.816L345.265 109.727C340.056 103.932 332.012 100.881 324.271 101.776C324.121 101.791 323.989 101.688 323.972 101.54C323.955 101.392 324.06 101.257 324.208 101.241C332.119 100.333 340.343 103.443 345.665 109.367L345.645 109.748L345.467 109.816Z" fill="#3F244A"/>
<path d="M345.841 220.6L377.316 165.372L386.152 176.741C402.124 176.036 417.965 179.897 431.82 187.873L454.532 200.945C466.308 207.724 476.268 217.253 483.557 228.721L496.251 248.689C501.54 257.009 503.571 266.989 501.949 276.715L433.981 302.967H373.205L351.997 272.399L344.572 227.711C344.165 225.265 344.615 222.753 345.841 220.6Z" fill="#52ADC3"/>
<path d="M419.213 213.848V283.548L462.48 258.195L432.273 288.672L419.213 290.021L434.161 295.955L455.469 280.581L433.981 302.967H407.733L419.213 213.848Z" fill="#2E819D"/>
<path d="M360.344 265.639L360.109 265.501C359.425 264.284 359.013 262.965 358.885 261.579L355.74 227.673C355.432 224.349 356.305 221.004 358.195 218.255L383.503 181.448C383.587 181.325 383.756 181.296 383.877 181.379C384.001 181.463 384.031 181.631 383.947 181.753L358.639 218.56C356.82 221.205 355.981 224.425 356.277 227.624L359.421 261.529C359.543 262.84 359.933 264.087 360.58 265.237C360.651 265.367 360.607 265.531 360.475 265.604L360.344 265.639Z" fill="#3F244A"/>
<path d="M419.213 283.817L418.98 283.684C418.905 283.556 418.949 283.389 419.077 283.315L477.544 249.056C477.671 248.98 477.837 249.024 477.915 249.152C477.988 249.28 477.945 249.445 477.816 249.521L419.349 283.78L419.213 283.817Z" fill="#3F244A"/>
<path d="M424.721 273.568L424.516 273.472L424.545 273.093L460.148 242.885L460.528 242.916L460.499 243.296L424.896 273.504L424.721 273.568Z" fill="#3F244A"/>
<path d="M432.836 258.677L432.672 258.623L432.623 258.244L444.736 242.388L445.113 242.336L445.164 242.715L433.049 258.572L432.836 258.677Z" fill="#3F244A"/>
<path d="M433.981 302.967L441.893 307.641L506.983 290.38L501.949 276.715L433.981 302.967Z" fill="#3F244A"/>
<path d="M433.98 303.236H373.205L372.984 303.12L351.776 272.553L351.731 272.444L344.305 227.755C343.891 225.256 344.353 222.668 345.608 220.467L377.083 165.239C377.155 165.109 377.319 165.063 377.449 165.137C377.58 165.211 377.624 165.376 377.549 165.505L346.076 220.735C344.883 222.828 344.443 225.289 344.839 227.667L352.252 272.296L373.348 302.697H433.929L501.707 276.519C503.273 266.893 501.257 257.067 496.025 248.833C495.944 248.708 495.98 248.541 496.108 248.461C496.229 248.381 496.399 248.417 496.479 248.544C501.812 256.933 503.849 266.953 502.215 276.759L502.045 276.967L434.079 303.219L433.98 303.236Z" fill="#3F244A"/>
<path d="M446.028 480.707L485.98 527.88C488.749 531.148 488.701 535.953 485.868 539.165L472.731 554.069L463.721 553.236C460.373 552.925 457.179 554.705 455.683 557.717L454.529 560.037C452.933 563.248 455.269 567.016 458.855 567.016H464.149C466.82 567.016 469.321 565.705 470.843 563.509H516.259C521.892 563.509 525.543 557.564 522.992 552.539L510.489 527.908L485.407 458.861L446.028 480.707Z" fill="#FAB590"/>
<path d="M472.731 554.339L472.552 554.272L472.528 553.892L485.667 538.986C488.389 535.897 488.436 531.197 485.775 528.053L478.629 519.617L478.66 519.237L479.04 519.269L486.187 527.705C489.02 531.052 488.971 536.056 486.072 539.344L472.932 554.248L472.731 554.339Z" fill="#3F244A"/>
<path d="M464.149 567.285H458.855C457.077 567.285 455.457 566.383 454.52 564.872C453.584 563.361 453.497 561.509 454.288 559.917C454.355 559.785 454.515 559.732 454.649 559.797C454.784 559.862 454.837 560.025 454.771 560.157C454.064 561.581 454.141 563.237 454.977 564.588C455.816 565.938 457.264 566.747 458.855 566.747H464.149C466.732 566.747 469.149 565.477 470.621 563.356L470.843 563.24H516.257C518.809 563.24 521.131 561.941 522.465 559.767C523.8 557.592 523.908 554.936 522.752 552.661L518.493 544.271C518.425 544.138 518.479 543.976 518.612 543.909C518.745 543.841 518.907 543.895 518.973 544.028L523.233 552.417C524.472 554.861 524.359 557.714 522.924 560.049C521.489 562.385 518.999 563.779 516.257 563.779H470.981C469.404 565.976 466.861 567.285 464.149 567.285Z" fill="#3F244A"/>
<path d="M467.553 556.81H460.768C458.939 556.81 457.308 557.964 456.697 559.689L456.373 560.605C456.151 561.233 456.616 561.891 457.283 561.891H464.155C465.657 561.891 466.996 560.944 467.497 559.528L468.157 557.665C468.305 557.249 467.996 556.81 467.553 556.81Z" fill="#FCD7C6"/>
<path d="M477.489 568.375H473.36C471.265 568.375 469.723 566.417 470.212 564.381L470.904 561.504C471.253 560.049 472.555 559.025 474.051 559.025H478.183C480.275 559.025 481.817 560.981 481.328 563.017L480.637 565.895C480.288 567.349 478.985 568.375 477.489 568.375Z" fill="#FAB590"/>
<path d="M488.368 568.375H484.237C482.144 568.375 480.601 566.417 481.091 564.381L481.783 561.504C482.132 560.049 483.433 559.025 484.929 559.025H489.06C491.153 559.025 492.696 560.981 492.207 563.017L491.516 565.895C491.165 567.349 489.864 568.375 488.368 568.375Z" fill="#FAB590"/>
<path d="M499.248 568.375H495.116C493.023 568.375 491.479 566.417 491.969 564.381L492.66 561.504C493.011 560.049 494.311 559.025 495.807 559.025H499.939C502.032 559.025 503.575 560.981 503.085 563.017L502.393 565.895C502.044 567.349 500.744 568.375 499.248 568.375Z" fill="#FAB590"/>
<path d="M510.125 568.375H505.995C503.901 568.375 502.359 566.417 502.848 564.381L503.539 561.504C503.889 560.049 505.191 559.025 506.687 559.025H510.816C512.911 559.025 514.453 560.981 513.964 563.017L513.272 565.895C512.923 567.349 511.621 568.375 510.125 568.375Z" fill="#FAB590"/>
<path d="M477.489 568.644H473.36C472.279 568.644 471.275 568.157 470.605 567.308C469.936 566.46 469.696 565.369 469.949 564.319L470.641 561.441C470.677 561.297 470.825 561.208 470.968 561.243C471.112 561.277 471.201 561.421 471.167 561.568L470.473 564.445C470.26 565.335 470.463 566.256 471.029 566.974C471.595 567.693 472.444 568.105 473.36 568.105H477.489C478.867 568.105 480.053 567.171 480.375 565.831L481.067 562.955C481.1 562.809 481.249 562.72 481.392 562.755C481.535 562.789 481.625 562.934 481.589 563.081L480.9 565.959C480.52 567.539 479.117 568.644 477.489 568.644Z" fill="#3F244A"/>
<path d="M488.368 568.644H484.237C483.156 568.644 482.152 568.157 481.483 567.308C480.813 566.46 480.576 565.369 480.828 564.319L481.52 561.441C481.9 559.86 483.303 558.753 484.929 558.753C485.079 558.753 485.199 558.876 485.199 559.026C485.199 559.174 485.079 559.295 484.929 559.295C483.552 559.295 482.365 560.228 482.044 561.568L481.353 564.445C481.139 565.335 481.341 566.256 481.908 566.974C482.473 567.693 483.323 568.105 484.237 568.105H488.368C489.745 568.105 490.931 567.171 491.252 565.831L491.945 562.955C491.979 562.809 492.128 562.72 492.271 562.755C492.416 562.789 492.504 562.934 492.471 563.081L491.777 565.959C491.397 567.539 489.995 568.644 488.368 568.644Z" fill="#3F244A"/>
<path d="M499.248 568.644H495.116C494.035 568.644 493.031 568.157 492.361 567.307C491.693 566.46 491.455 565.368 491.707 564.319L492.399 561.441C492.779 559.86 494.181 558.753 495.807 558.753C495.956 558.753 496.077 558.876 496.077 559.026C496.077 559.174 495.956 559.295 495.807 559.295C494.429 559.295 493.244 560.228 492.923 561.568L492.232 564.445C492.019 565.335 492.219 566.256 492.785 566.974C493.352 567.693 494.201 568.105 495.116 568.105H499.248C500.624 568.105 501.809 567.171 502.132 565.831L502.823 562.955C502.859 562.809 503.008 562.72 503.148 562.755C503.293 562.789 503.383 562.934 503.348 563.081L502.656 565.959C502.276 567.539 500.873 568.644 499.248 568.644Z" fill="#3F244A"/>
<path d="M510.125 568.644H505.995C504.913 568.644 503.911 568.157 503.241 567.308C502.572 566.46 502.332 565.369 502.584 564.319L503.277 561.441C503.657 559.86 505.06 558.753 506.687 558.753C506.835 558.753 506.956 558.876 506.956 559.026C506.956 559.174 506.835 559.295 506.687 559.295C505.309 559.295 504.124 560.228 503.803 561.568L503.109 564.445C502.896 565.335 503.097 566.256 503.665 566.974C504.231 567.693 505.08 568.105 505.995 568.105H510.125C511.503 568.105 512.689 567.171 513.011 565.831L513.7 562.955C513.736 562.809 513.885 562.72 514.027 562.755C514.171 562.789 514.26 562.934 514.225 563.081L513.535 565.959C513.153 567.539 511.751 568.644 510.125 568.644Z" fill="#3F244A"/>
<path d="M430.416 324.343L394.081 393.793C387.459 406.455 388.548 421.769 396.899 433.364L439.736 492.845L444.241 492.08C465.856 488.409 485.3 476.744 498.712 459.4L463.829 410.133L490.565 382.328C502.404 370.016 510.028 354.264 512.344 337.343L430.416 324.343Z" fill="#52ADC3"/>
<path d="M439.736 493.115L439.517 493.003L396.68 433.523C388.217 421.771 387.131 406.5 393.843 393.667L398.492 384.783C398.563 384.651 398.725 384.6 398.856 384.669C398.988 384.739 399.037 384.901 398.971 385.032L394.32 393.917C387.703 406.567 388.775 421.623 397.117 433.207L439.856 492.551L444.195 491.813C465.74 488.155 484.973 476.643 498.376 459.393L463.609 410.288L463.635 409.945L490.369 382.14C498.465 373.723 504.736 363.432 508.508 352.381C508.556 352.241 508.704 352.163 508.851 352.213C508.991 352.26 509.067 352.416 509.019 352.556C505.221 363.681 498.908 374.04 490.759 382.515L464.179 410.159L498.932 459.245L498.925 459.565C485.433 477.012 466.029 488.653 444.287 492.345L439.781 493.111L439.736 493.115Z" fill="#3F244A"/>
<path d="M434.361 479.283C434.224 479.283 434.107 479.179 434.092 479.04C434.079 478.892 434.185 478.759 434.333 478.744C452.841 476.812 470.412 467.611 482.537 453.499L482.917 453.471L482.947 453.851C470.732 468.065 453.032 477.335 434.389 479.281L434.361 479.283Z" fill="#3F244A"/>
<path d="M478.12 430.584L477.9 430.472L449.259 390.021C449.172 389.9 449.201 389.731 449.323 389.644C449.444 389.559 449.613 389.587 449.699 389.708L478.34 430.159C478.427 430.281 478.397 430.449 478.276 430.535L478.12 430.584Z" fill="#3F244A"/>
<path d="M441.837 440.236C425.797 440.236 409.847 434.283 397.901 423.388L397.884 423.007L398.265 422.989C413.76 437.125 436.063 442.871 456.457 437.984C456.6 437.949 456.748 438.039 456.783 438.184C456.816 438.329 456.728 438.473 456.584 438.509C451.737 439.671 446.781 440.236 441.837 440.236Z" fill="#3F244A"/>
<path d="M433.687 431.505L433.436 431.337C433.379 431.2 433.445 431.043 433.584 430.985C442.995 427.112 450.535 419.036 453.752 409.381C453.801 409.24 453.953 409.165 454.095 409.211C454.236 409.257 454.312 409.411 454.265 409.552C450.999 419.355 443.343 427.553 433.788 431.484L433.687 431.505Z" fill="#3F244A"/>
<path d="M463.829 410.403C463.705 410.403 463.595 410.316 463.567 410.193L460.06 394.729C460.028 394.584 460.119 394.439 460.263 394.407C460.407 394.375 460.553 394.465 460.585 394.609L464.092 410.072C464.125 410.218 464.033 410.361 463.889 410.396L463.829 410.403Z" fill="#3F244A"/>
<path d="M430.417 324.343L512.344 337.343L425.968 332.847L430.417 324.343Z" fill="#2E819D"/>
<path d="M441.893 307.641L427.148 323.825L524.604 339.288L518.653 307.655C518.076 304.584 516.701 301.719 514.668 299.345L506.983 290.38L441.893 307.641Z" fill="#52ADC3"/>
<path d="M515.884 331.112L515.837 331.109L438.847 317.528C438.699 317.501 438.6 317.361 438.628 317.215C438.652 317.069 438.783 316.967 438.939 316.996L515.931 330.577C516.079 330.604 516.176 330.743 516.149 330.889C516.127 331.021 516.013 331.112 515.884 331.112Z" fill="#3F244A"/>
<path d="M415.141 373.956L415.049 373.939L414.872 373.687L414.889 373.593L421.488 355.509C421.537 355.368 421.693 355.297 421.833 355.349L422.011 355.601L421.993 355.693L415.395 373.779L415.141 373.956Z" fill="#3F244A"/>
<path d="M371.317 535.729L330.072 546.35C327.567 546.995 325.216 548.133 323.156 549.698L316.001 555.14C310.196 559.556 303.291 562.292 296.036 563.05L270.985 565.667L267.076 568.563C265.152 569.986 262.467 569.748 260.825 568.004L260.749 568.04C259.145 568.796 257.24 568.016 256.625 566.356C256.224 565.274 256.473 564.059 257.268 563.222L262.804 557.396L257.191 560.941C256.397 561.441 255.467 561.68 254.531 561.621L250.499 561.369C248.801 561.263 247.561 559.724 247.817 558.043L248.316 554.786C248.889 551.031 252.156 548.284 255.952 548.362L258.128 548.405L263.268 541.262C266.677 536.526 272.26 533.844 278.088 534.144L285.717 534.539C288.147 534.665 290.487 533.596 291.984 531.677L298.208 523.696C301.341 519.681 306.9 518.483 311.408 520.855L321.061 525.929L359.72 504.353L371.317 535.729Z" fill="#FAC1A4"/>
<path d="M311.175 536.239C311.029 536.239 310.909 536.123 310.905 535.975C310.843 533.469 313.053 531.54 315.135 530.809C316.777 530.233 318.535 530.137 320.236 530.041C320.801 530.011 321.365 529.979 321.925 529.931C324.988 529.665 327.956 528.883 330.751 527.605C330.884 527.543 331.047 527.6 331.109 527.739C331.171 527.873 331.111 528.033 330.975 528.096C328.125 529.399 325.096 530.197 321.972 530.469C321.407 530.517 320.836 530.548 320.265 530.581C318.603 530.673 316.884 530.768 315.313 531.32C313.411 531.988 311.388 533.725 311.444 535.963C311.448 536.11 311.332 536.235 311.183 536.239H311.175Z" fill="#3F244A"/>
<path d="M260.825 568.275L260.613 568.172L260.66 567.793C265.603 563.909 267.693 561.215 267.715 561.188L268.092 561.139L268.141 561.516C268.056 561.627 265.996 564.286 260.992 568.216L260.825 568.275Z" fill="#3F244A"/>
<path d="M254.531 561.621C253.813 558.565 255.432 553.709 255.432 553.709L252.223 553.948C251.089 554.031 250.053 554.733 249.675 555.805C248.561 558.967 250.499 561.369 250.499 561.369L254.531 561.621Z" fill="#FCD7C6"/>
<path d="M260.825 567.736L261.023 567.82C262.568 569.463 265.101 569.691 266.915 568.345L270.824 565.451L270.957 565.399L296.008 562.781C303.216 562.028 310.073 559.312 315.839 554.926L322.993 549.484C325.092 547.889 327.451 546.747 330.004 546.087L370.963 535.543L359.577 504.741L321.193 526.165L320.936 526.169L311.283 521.092C306.887 518.779 301.476 519.945 298.421 523.861L292.196 531.844C290.647 533.831 288.205 534.926 285.703 534.808L278.075 534.415C272.313 534.112 266.859 536.736 263.488 541.42L258.348 548.564L258.124 548.675L255.947 548.631C252.276 548.55 249.135 551.22 248.583 554.826L248.084 558.084C247.973 558.809 248.175 559.555 248.636 560.128C249.097 560.699 249.781 561.055 250.515 561.1L254.548 561.353C255.433 561.404 256.299 561.187 257.047 560.714L262.66 557.168L263.012 557.226L262.999 557.581L257.464 563.408C256.747 564.164 256.516 565.284 256.879 566.262C257.149 566.993 257.696 567.559 258.419 567.855C259.14 568.148 259.928 568.129 260.633 567.797L260.713 567.76L260.825 567.736ZM264.267 569.76C262.992 569.76 261.727 569.275 260.765 568.328C259.957 568.679 259.033 568.691 258.215 568.355C257.363 568.005 256.692 567.311 256.372 566.45C255.94 565.279 256.215 563.94 257.073 563.036L261.116 558.781L257.335 561.168C256.491 561.703 255.512 561.943 254.515 561.891L250.481 561.639C249.597 561.584 248.772 561.156 248.216 560.467C247.66 559.776 247.417 558.879 247.552 558.003L248.049 554.744C248.641 550.872 252.031 548.003 255.957 548.091L257.992 548.133L263.049 541.104C266.528 536.271 272.167 533.576 278.103 533.875L285.729 534.269C288.067 534.392 290.329 533.362 291.771 531.513L297.996 523.531C301.212 519.408 306.907 518.183 311.533 520.615L321.057 525.624L359.588 504.117L359.813 504.1L359.972 504.259L371.571 535.636L371.557 535.855L371.385 535.989L330.139 546.611C327.655 547.251 325.361 548.362 323.32 549.915L316.165 555.356C310.321 559.802 303.369 562.555 296.064 563.319L271.085 565.927L267.236 568.779C266.348 569.438 265.304 569.76 264.267 569.76Z" fill="#3F244A"/>
<path d="M352.177 498.239L419.315 463.868C434.617 456.035 453.355 460.713 463.179 474.82C473.996 490.355 470.216 511.709 454.725 522.585L391.451 567.016C354.145 546.786 352.177 498.239 352.177 498.239Z" fill="#E9465C"/>
<path d="M454.725 522.857L454.504 522.743C454.419 522.62 454.448 522.452 454.571 522.365C462.277 516.956 467.293 508.844 468.695 499.528C468.717 499.381 468.84 499.276 469.001 499.303C469.148 499.324 469.251 499.461 469.228 499.608C467.805 509.072 462.709 517.309 454.88 522.808L454.725 522.857Z" fill="#3F244A"/>
<path d="M365.272 491.805L365.032 491.659C364.965 491.527 365.017 491.363 365.149 491.295L419.192 463.628C434.544 455.769 453.545 460.517 463.4 474.667C466.564 479.209 468.613 484.493 469.324 489.947C469.344 490.095 469.24 490.231 469.092 490.251C468.945 490.263 468.809 490.164 468.789 490.017C468.079 484.572 466.117 479.511 462.957 474.973C453.256 461.045 434.544 456.372 419.439 464.108L365.396 491.775L365.272 491.805Z" fill="#3F244A"/>
<path d="M394.995 550.098L394.832 550.044C378.669 537.733 368.357 518.271 367.244 497.985C367.237 497.837 367.351 497.709 367.499 497.701H367.513C367.656 497.701 367.775 497.813 367.784 497.957C368.887 518.085 379.121 537.397 395.157 549.615L395.209 549.993L394.995 550.098Z" fill="#3F244A"/>
<path d="M420.416 530.616L420.177 530.472C411.424 513.967 410.949 493.223 418.937 476.336C419.001 476.2 419.164 476.144 419.297 476.208C419.431 476.271 419.489 476.432 419.424 476.567C411.508 493.304 411.977 513.861 420.653 530.22C420.723 530.352 420.673 530.515 420.541 530.584L420.416 530.616Z" fill="#3F244A"/>
<path d="M440.556 511.292C433.639 511.292 426.747 508.027 422.467 502.572L422.512 502.195L422.891 502.24C427.58 508.215 435.487 511.5 443.027 510.608C443.168 510.589 443.307 510.696 443.325 510.844C443.343 510.991 443.237 511.127 443.088 511.143C442.249 511.244 441.403 511.292 440.556 511.292Z" fill="#3F244A"/>
<path d="M370.915 206.397L355.54 292.179L279.497 307.641L279.112 312.02C277.439 331.109 284.383 349.947 298.047 363.383L321.06 350.207C325.763 347.515 330.991 345.865 336.388 345.373L379.471 341.44C393.251 340.183 404.311 329.525 406.08 315.801L419.213 213.848C420.957 200.172 411.051 187.761 397.329 186.429C384.669 185.199 373.183 193.883 370.915 206.397Z" fill="#52ADC3"/>
<path d="M279.496 307.912C279.371 307.912 279.259 307.824 279.232 307.696C279.203 307.549 279.297 307.408 279.443 307.377L382.727 286.375C382.869 286.345 383.015 286.439 383.045 286.584C383.075 286.731 382.98 286.873 382.835 286.903L279.551 307.907L279.496 307.912Z" fill="#3F244A"/>
<path d="M355.54 292.448L355.492 292.444C355.347 292.417 355.248 292.277 355.275 292.131L370.648 206.351C370.673 206.204 370.816 206.108 370.961 206.133C371.107 206.159 371.205 206.299 371.179 206.445L355.805 292.225C355.783 292.356 355.668 292.448 355.54 292.448Z" fill="#3F244A"/>
<path d="M317.295 349.001L317.097 348.916L317.111 348.535C327.153 339.183 340.161 332.939 353.739 330.952C353.881 330.931 354.023 331.033 354.044 331.18C354.067 331.328 353.964 331.465 353.816 331.487C340.347 333.456 327.441 339.651 317.479 348.928L317.295 349.001Z" fill="#3F244A"/>
<path d="M406.081 316.071L406.045 316.068C405.899 316.049 405.795 315.915 405.812 315.767L417.955 221.511C417.972 221.363 418.112 221.255 418.256 221.277C418.404 221.296 418.508 221.432 418.489 221.58L406.348 315.835C406.329 315.972 406.213 316.071 406.081 316.071Z" fill="#3F244A"/>
<path d="M419.231 216.237L419.184 216.233C419.037 216.208 418.939 216.068 418.965 215.921C419.923 210.423 419.029 204.672 416.447 199.727C413.864 194.78 409.655 190.76 404.596 188.407C404.461 188.344 404.403 188.184 404.465 188.049C404.528 187.913 404.689 187.855 404.823 187.917C409.989 190.321 414.288 194.427 416.924 199.477C419.561 204.527 420.475 210.4 419.495 216.013C419.472 216.145 419.359 216.237 419.231 216.237Z" fill="#3F244A"/>
<path d="M298.047 363.652L297.812 363.516C297.739 363.387 297.783 363.223 297.912 363.148L316.976 352.235C317.103 352.161 317.269 352.204 317.343 352.335C317.417 352.465 317.373 352.629 317.244 352.701L298.18 363.616L298.047 363.652Z" fill="#3F244A"/>
<path d="M281.751 298.337L280.969 306.161C280.748 308.383 281.22 310.617 282.321 312.559L285.684 318.484C286.952 320.719 289.484 321.92 292.017 321.491L293.101 321.307L293.301 321.737C293.883 322.991 295.187 323.747 296.563 323.631C298.265 323.485 299.575 322.061 299.575 320.352V318.611L299.967 321.133C300.207 322.683 301.54 323.825 303.107 323.825C304.441 323.825 305.633 322.992 306.092 321.739L306.677 320.139L309.193 320.447C310.781 320.643 312.339 319.892 313.176 318.528L318.023 310.639C318.54 309.796 318.813 308.827 318.813 307.839V299.647L323.756 298.641L319.231 293.627C316.276 290.353 312.336 288.131 308.007 287.296L305.153 286.747C301.617 286.064 297.964 286.336 294.568 287.532L288.581 289.641C284.811 290.971 282.149 294.36 281.751 298.337Z" fill="#FAB590"/>
<path d="M303.107 324.095C301.432 324.095 300.025 322.919 299.719 321.284C299.331 322.689 298.093 323.772 296.585 323.899C295.101 324.032 293.684 323.201 293.056 321.852L292.944 321.608L292.061 321.757C289.425 322.199 286.769 320.941 285.451 318.617L282.087 312.692C280.952 310.691 280.472 308.423 280.701 306.135C280.716 305.987 280.852 305.873 280.996 305.893C281.144 305.908 281.252 306.04 281.237 306.188C281.021 308.365 281.476 310.523 282.556 312.425L285.919 318.351C287.127 320.479 289.561 321.635 291.972 321.225L293.056 321.041C293.179 321.016 293.295 321.084 293.345 321.195L293.545 321.624C294.077 322.769 295.281 323.459 296.54 323.361C298.091 323.229 299.305 321.908 299.305 320.353V318.611C299.305 318.469 299.413 318.352 299.555 318.341C299.7 318.317 299.82 318.429 299.841 318.569L300.232 321.092C300.455 322.52 301.663 323.555 303.107 323.555C304.323 323.555 305.42 322.788 305.839 321.645L306.424 320.045C306.467 319.928 306.585 319.856 306.709 319.871L309.225 320.18C310.712 320.361 312.167 319.657 312.947 318.388L317.793 310.497C318.284 309.696 318.544 308.777 318.544 307.839V299.647C318.544 299.519 318.635 299.408 318.76 299.383L323.24 298.472L319.029 293.807C317.396 291.997 315.469 290.515 313.3 289.404C313.167 289.336 313.115 289.173 313.183 289.04C313.251 288.908 313.413 288.857 313.545 288.923C315.773 290.065 317.752 291.587 319.431 293.445L323.957 298.461L324.013 298.725L323.811 298.905L319.084 299.867V307.839C319.084 308.877 318.796 309.893 318.252 310.779L313.407 318.669C312.516 320.119 310.848 320.921 309.16 320.715L306.857 320.432L306.345 321.831C305.849 323.185 304.548 324.095 303.107 324.095Z" fill="#3F244A"/>
<path d="M293.101 321.577L292.855 321.416L288.056 310.457C287.645 309.521 287.437 308.528 287.437 307.507V300.36C287.437 300.211 287.557 300.089 287.707 300.089C287.856 300.089 287.976 300.211 287.976 300.36V307.507C287.976 308.453 288.169 309.373 288.549 310.241L293.348 321.199C293.408 321.336 293.345 321.495 293.209 321.555L293.101 321.577Z" fill="#3F244A"/>
<path d="M299.573 318.88C299.436 318.88 299.317 318.773 299.305 318.632L297.777 299.932C297.765 299.783 297.876 299.653 298.024 299.641C298.168 299.631 298.303 299.739 298.315 299.888L299.843 318.588C299.856 318.736 299.745 318.867 299.596 318.879L299.573 318.88Z" fill="#3F244A"/>
<path d="M306.677 320.408L306.617 320.402C306.472 320.37 306.381 320.224 306.413 320.08L308.78 309.506C308.991 308.566 309.001 307.61 308.813 306.664L307.132 298.255C307.103 298.11 307.196 297.967 307.343 297.938C307.48 297.906 307.631 298.003 307.661 298.15L309.343 306.559C309.547 307.578 309.535 308.61 309.307 309.624L306.94 320.198C306.912 320.323 306.801 320.408 306.677 320.408Z" fill="#3F244A"/>
<path d="M318.813 299.916L318.572 299.765L315.516 293.556C315.449 293.421 315.504 293.261 315.639 293.195C315.772 293.129 315.933 293.184 315.999 293.317L319.056 299.528C319.121 299.661 319.067 299.823 318.933 299.888L318.813 299.916Z" fill="#3F244A"/>
<path d="M293.06 309.208C291.819 309.208 290.579 309.049 289.38 308.733C289.236 308.695 289.149 308.548 289.188 308.404C289.225 308.26 289.372 308.172 289.517 308.212C291.611 308.764 293.837 308.816 295.959 308.364C296.101 308.339 296.247 308.427 296.277 308.572C296.309 308.717 296.216 308.861 296.071 308.892C295.083 309.104 294.071 309.208 293.06 309.208Z" fill="#3F244A"/>
<path d="M304.784 309.562C304.024 309.562 303.264 309.455 302.529 309.239C302.387 309.198 302.304 309.047 302.347 308.904C302.388 308.762 302.537 308.679 302.681 308.722C304.309 309.2 306.068 309.107 307.635 308.46C307.773 308.402 307.931 308.468 307.987 308.607C308.044 308.744 307.977 308.902 307.84 308.958C306.868 309.36 305.827 309.562 304.784 309.562Z" fill="#3F244A"/>
<path d="M316.055 309.439C314.917 309.439 313.777 309.257 312.701 308.9C312.56 308.853 312.483 308.7 312.529 308.559C312.576 308.417 312.728 308.34 312.871 308.388C314.273 308.853 315.788 309.003 317.255 308.828C317.399 308.808 317.537 308.915 317.556 309.063C317.573 309.211 317.468 309.345 317.32 309.363C316.901 309.415 316.479 309.439 316.055 309.439Z" fill="#3F244A"/>
<path d="M371.048 371.803C369.697 368.427 369.313 364.619 369.632 360.969C370.103 355.563 371.963 350.389 373.807 345.285C375.169 346.373 376.579 347.409 378.031 348.396L371.048 371.803Z" fill="#B83B5A"/>
<path d="M388.212 382.604C382.741 382.604 377.175 380.503 373.695 376.307C372.751 375.168 371.984 373.912 371.379 372.579L378.499 348.712C388.044 355.091 399.336 359.357 410.628 362.167L402.063 378.54C398.216 380.745 393.988 382.273 389.584 382.56C389.128 382.589 388.671 382.604 388.212 382.604Z" fill="#C8908A"/>
<path d="M371.379 372.579C371.263 372.323 371.152 372.064 371.048 371.803L378.031 348.396C378.185 348.501 378.343 348.608 378.499 348.712L371.379 372.579Z" fill="#3F244A"/>
<path d="M402.063 378.54L410.628 362.167C413.237 362.815 415.844 363.385 418.431 363.887L418.224 364.456C414.345 368.601 410.415 372.74 405.831 376.085C404.624 376.967 403.365 377.792 402.063 378.54Z" fill="#4D83A3"/>
<path d="M418.224 364.456L418.431 363.887C418.523 363.905 418.615 363.923 418.705 363.94C418.545 364.112 418.384 364.284 418.224 364.456Z" fill="#3F244A"/>
<path d="M375.436 331.837C370.672 320.583 371.424 310.257 384.055 305.045C382.564 302.916 381.235 301.123 380.468 298.639C379.7 296.155 379.725 293.304 381.12 291.111C382.909 288.293 386.584 287.155 389.905 287.471C393.225 287.785 396.3 289.295 399.288 290.779C423.52 276.127 488.109 302.213 435.18 357.272L422.449 362.985L420.239 350.155L424.856 341.533L421.848 328.501L399.993 326.096L385.96 314.668L375.436 331.837Z" fill="#9C495C"/>
<path d="M386.557 311.151C381.757 318.953 377.489 327.084 373.792 335.465C371.829 339.915 370.013 344.485 369.297 349.296C368.581 354.104 369.04 359.219 371.416 363.461C374.267 368.555 379.676 371.919 385.389 373.116C391.104 374.311 397.091 373.517 402.657 371.757C408.224 369.997 413.443 367.305 418.629 364.625C418.575 367.025 420.476 370.268 422.56 371.463C424.643 372.656 427.161 372.903 429.544 372.609C433.245 372.152 436.984 370.216 438.58 366.847C440.429 362.943 438.591 357.712 434.705 355.823C430.82 353.935 425.572 355.719 423.643 359.584C422.245 354.144 423.931 347.801 427.928 343.856C425.593 338.316 425.015 332.617 426.38 326.764C408.115 327.5 391.617 320.816 386.557 311.151Z" fill="#FAC1A4"/>
<path d="M435.205 362.176C433.779 361.057 431.884 360.556 430.089 360.821C428.296 361.085 426.628 362.113 425.584 363.595C425.176 364.175 424.856 364.832 424.772 365.533C424.688 366.237 424.86 366.989 425.332 367.517C426.032 368.299 427.224 368.435 428.255 368.24C429.451 368.013 430.627 367.355 431.173 366.267C431.72 365.181 431.439 363.656 430.379 363.059C431.355 361.883 433.825 361.523 435.205 362.176Z" fill="#F79484"/>
<path d="M412.077 332.133C408.048 332.2 404.46 333.988 401.972 336.772L422.331 336.433C419.751 333.733 416.105 332.065 412.077 332.133Z" fill="#9C495C"/>
<path d="M415.141 347.351C413.932 345.128 411.953 343.332 409.623 342.345C407.292 341.359 404.625 341.184 402.187 341.861C406.461 342.628 411.548 344.912 415.141 347.351Z" fill="#3F244A"/>
<path d="M392.872 322.665C394.384 325.096 394.477 328.376 393.423 331.646L385.783 319.359C388.74 319.148 391.361 320.233 392.872 322.665Z" fill="#9C495C"/>
<path d="M381.071 326.797C383.147 326.817 385.211 327.719 386.827 329.309C388.441 330.9 389.597 333.171 390.051 335.64C387.844 332.231 384.225 328.819 381.071 326.797Z" fill="#3F244A"/>
<path d="M394.703 351.321C392.123 349.373 389.337 347.699 386.407 346.333C386.279 348.22 387.175 350.388 388.795 351.364C390.415 352.341 393.093 352.315 394.703 351.321Z" fill="#F79484"/>
<path d="M395.092 364.843C394.967 360.564 392.247 356.548 388.477 354.516C384.711 352.483 380.052 352.363 376.036 353.845C382.085 357.068 389.043 361.62 395.092 364.843Z" fill="white"/>
<path d="M422.667 320.441C415.504 320.441 408.261 318.063 402.536 313.783C396.295 309.117 391.711 302.087 389.961 294.495C389.927 294.349 390.019 294.205 390.161 294.171C390.313 294.14 390.453 294.228 390.485 294.373C392.208 301.844 396.717 308.761 402.859 313.351C408.999 317.941 416.905 320.307 424.563 319.845C424.705 319.82 424.839 319.949 424.849 320.099C424.857 320.247 424.745 320.375 424.595 320.384C423.955 320.423 423.309 320.441 422.667 320.441Z" fill="#3F244A"/>
<path d="M424.208 312.765C415.687 312.765 407.283 308.971 401.657 302.565L401.683 302.184L402.063 302.209C407.585 308.499 415.841 312.225 424.208 312.225C424.333 312.225 424.459 312.224 424.584 312.223C424.721 312.191 424.856 312.34 424.857 312.489C424.86 312.639 424.74 312.76 424.589 312.763C424.464 312.764 424.336 312.765 424.208 312.765Z" fill="#3F244A"/>
<path d="M440.221 336.339L440.099 336.308C439.967 336.241 439.915 336.079 439.98 335.945C444.148 327.777 443.609 317.532 438.608 309.845C438.528 309.721 438.563 309.555 438.688 309.473C438.811 309.393 438.98 309.427 439.061 309.552C444.164 317.396 444.715 327.853 440.461 336.192L440.221 336.339Z" fill="#3F244A"/>
<path d="M447.736 332.131L447.605 332.098C447.475 332.026 447.428 331.862 447.5 331.731C449.925 327.346 450.383 321.904 448.724 317.175C448.675 317.035 448.749 316.882 448.889 316.832C449.029 316.782 449.184 316.856 449.233 316.996C450.943 321.868 450.472 327.474 447.972 331.992L447.736 332.131Z" fill="#3F244A"/>
</svg>
